<?xml version="1.0" encoding="UTF-8"?>
<svg width="635px" height="91px" viewBox="0 0 635 91" version="1.1" xmlns="http://www.w3.org/2000/svg" xmlns:xlink="http://www.w3.org/1999/xlink">
    <!-- Generator: Sketch 51.3 (57544) - http://www.bohemiancoding.com/sketch -->
    <title>Group 3</title>
    <desc>Created with Sketch.</desc>
    <defs></defs>
    <g id="Page-1" stroke="none" stroke-width="1" fill="none" fill-rule="evenodd">
        <g id="Group-3" fill="#FFFFFF">
            <path d="M8.34960938,48.8095703 L18.9331055,48.8095703 C21.5454232,48.8095703 23.6877358,48.3640181 25.3601074,47.4729004 C27.0324791,46.5817827 28.2714803,45.3427814 29.0771484,43.7558594 C29.8828165,42.1689374 30.2856445,40.3501079 30.2856445,38.2993164 C30.2856445,36.2485249 29.8828165,34.4419023 29.0771484,32.8793945 C28.2714803,31.3168867 27.0263756,30.0961958 25.3417969,29.2172852 C23.6572181,28.3383745 21.5088021,27.8989258 18.8964844,27.8989258 L8.34960938,27.8989258 L8.34960938,48.8095703 Z M8.34960938,55.9140625 L8.34960938,75.3232422 L0,75.3232422 L0,20.7578125 L19.7021484,20.7578125 C23.8525598,20.7578125 27.3315289,21.5146409 30.1391602,23.0283203 C32.9467914,24.5419998 35.0646901,26.6232778 36.4929199,29.2722168 C37.9211497,31.9211558 38.6352539,34.9301589 38.6352539,38.2993164 C38.6352539,41.6928881 37.9150463,44.7140981 36.4746094,47.3630371 C35.0341725,50.0119761 32.9040668,52.0993576 30.0842285,53.6252441 C27.2643902,55.1511307 23.7671107,55.9140625 19.5922852,55.9140625 L8.34960938,55.9140625 Z M58.6669922,76.1655273 C56.0790886,76.1655273 53.747569,75.6955613 51.6723633,74.7556152 C49.5971576,73.8156691 47.9553283,72.4301849 46.7468262,70.5991211 C45.538324,68.7680573 44.934082,66.521986 44.934082,63.8608398 C44.934082,61.5659065 45.3796342,59.679939 46.270752,58.2028809 C47.1618697,56.7258227 48.3520433,55.5600629 49.8413086,54.7055664 C51.3305739,53.8510699 53.0090239,53.2041038 54.876709,52.7646484 C56.7443941,52.3251931 58.6547754,51.9956066 60.6079102,51.7758789 C63.0249144,51.4829087 64.9719164,51.2387705 66.4489746,51.043457 C67.9260328,50.8481436 69.0124477,50.5429708 69.708252,50.1279297 C70.4040562,49.7128885 70.7519531,49.0293016 70.7519531,48.0771484 L70.7519531,47.8574219 C70.7519531,46.3681566 70.4589873,45.1047415 69.8730469,44.0671387 C69.2871064,43.0295358 68.408209,42.2299833 67.2363281,41.668457 C66.0644473,41.1069308 64.624032,40.8261719 62.9150391,40.8261719 C61.181632,40.8261719 59.6801821,41.1008273 58.4106445,41.6501465 C57.1411069,42.1994656 56.1096231,42.9074664 55.3161621,43.7741699 C54.5227011,44.6408735 53.9672867,45.5624951 53.6499023,46.5390625 L46.0693359,45.0375977 C46.8261757,42.571765 48.0285562,40.5515215 49.6765137,38.9768066 C51.3244711,37.4020917 53.2836801,36.2302285 55.5541992,35.4611816 C57.8247184,34.6921348 60.2538933,34.3076172 62.8417969,34.3076172 C64.6484465,34.3076172 66.4855864,34.5273416 68.3532715,34.9667969 C70.2209566,35.4062522 71.9421308,36.1508737 73.5168457,37.2006836 C75.0915606,38.2504935 76.3549757,39.6787019 77.3071289,41.4853516 C78.2592821,43.2920012 78.7353516,45.5624863 78.7353516,48.296875 L78.7353516,75.3232422 L70.9716797,75.3232422 L70.9716797,69.7568359 L70.6420898,69.7568359 C70.1049778,70.8066459 69.3237356,71.8198193 68.2983398,72.7963867 C67.2729441,73.7729541 65.9668048,74.5786101 64.3798828,75.2133789 C62.7929608,75.8481477 60.888683,76.1655273 58.6669922,76.1655273 Z M60.4248047,69.7568359 C62.6464955,69.7568359 64.5263595,69.3295941 66.0644531,68.4750977 C67.6025468,67.6206012 68.77441,66.4975656 69.5800781,65.105957 C70.3857462,63.7143485 70.7885742,62.2251056 70.7885742,60.6381836 L70.7885742,55.5478516 C70.5200182,55.8164076 69.9951211,56.0605458 69.2138672,56.2802734 C68.4326133,56.5000011 67.5415089,56.7014151 66.5405273,56.8845215 C65.5395458,57.0676279 64.5507861,57.2263177 63.5742188,57.3605957 C62.5976514,57.4948737 61.7431677,57.6108394 61.0107422,57.7084961 C59.5458911,57.9038096 58.1848207,58.2272927 56.9274902,58.6789551 C55.6701597,59.1306175 54.6691932,59.7775837 53.9245605,60.619873 C53.1799279,61.4621624 52.8076172,62.5790946 52.8076172,63.9707031 C52.8076172,65.2402407 53.1311003,66.3022418 53.7780762,67.1567383 C54.4250521,68.0112347 55.3222599,68.6582009 56.4697266,69.0976562 C57.6171932,69.5371116 58.9355394,69.7568359 60.4248047,69.7568359 Z M105.005064,67.9068396 C105.271424,66.9385294 105.535849,65.9682823 105.79834,64.9960938 C106.457523,62.5546753 107.214351,60.1255004 108.068848,57.7084961 L116.19873,34.8935547 L124.694824,34.8935547 L106.970215,81.2558594 C106.164547,83.3554792 105.169684,85.1193776 103.985596,86.5476074 C102.801508,87.9758372 101.403817,89.0500452 99.7924805,89.7702637 C98.1811443,90.4904821 96.3256941,90.8505859 94.2260742,90.8505859 C93.0786075,90.8505859 92.0227099,90.7773445 91.0583496,90.6308594 C90.0939893,90.4843743 89.3310575,90.3378914 88.7695312,90.1914062 L90.3076172,83.5996094 L91.9555664,83.8193359 C93.2006898,84.087892 94.3237255,84.1245127 95.324707,83.9291992 C96.3256886,83.7338857 97.1984826,83.227299 97.9431152,82.4094238 C98.6877479,81.5915486 99.2919899,80.3769612 99.7558594,78.765625 L100.817871,75.3964844 L85.4003906,34.8935547 L94.0063477,34.8935547 L102.026367,57.7084961 C102.905278,60.1499146 103.649899,62.5851929 104.260254,65.0144043 C104.502745,65.979517 104.751014,66.9436606 105.005064,67.9068396 Z M157.096492,67.1955292 C157.288907,66.218246 157.479968,65.2409624 157.669678,64.2636719 C158.072512,62.1884662 158.499754,60.131602 158.951416,58.0930176 C159.403078,56.0544332 159.873044,54.0586035 160.361328,52.1054688 L168.491211,20.7578125 L177.573242,20.7578125 L185.666504,52.1054688 C186.179202,54.0586035 186.655271,56.0544332 187.094727,58.0930176 C187.534182,60.131602 187.967527,62.1884662 188.394775,64.2636719 C188.584784,65.1865704 188.77117,66.1094628 188.953934,67.0323545 L189.475098,64.2636719 C189.865725,62.1884662 190.28076,60.131602 190.720215,58.0930176 C191.15967,56.0544332 191.611326,54.0586035 192.075195,52.1054688 L199.94873,20.7578125 L208.737793,20.7578125 L193.90625,75.3232422 L184.311523,75.3232422 L175.595703,42.7670898 C174.93652,40.2524288 174.326175,37.5608054 173.764648,34.6921387 C173.509427,33.388291 173.251686,32.030235 172.991423,30.6179617 C172.75392,31.9335129 172.523381,33.2061202 172.299805,34.435791 C171.787107,37.2556293 171.164554,40.0327012 170.432129,42.7670898 L161.75293,75.3232422 L152.121582,75.3232422 L137.32666,20.7578125 L146.079102,20.7578125 L153.952637,52.1054688 C154.44092,54.0586035 154.89868,56.0544332 155.325928,58.0930176 C155.753176,60.131602 156.162107,62.1884662 156.552734,64.2636719 C156.736695,65.2409624 156.917947,66.218246 157.096492,67.1955292 Z M215.476074,75.3232422 L215.476074,34.8935547 L223.496094,34.8935547 L223.496094,75.3232422 L215.476074,75.3232422 Z M243.527832,41.4121094 L243.527832,64.4467773 C243.527832,66.0336993 243.857419,67.1933557 244.516602,67.9257812 C245.175785,68.6582068 246.29882,69.0244141 247.885742,69.0244141 C248.349612,69.0244141 248.923336,68.9816899 249.606934,68.8962402 C250.290531,68.8107906 250.876462,68.7314457 251.364746,68.6582031 L252.5,75.1035156 C251.669918,75.3232433 250.778813,75.4819331 249.82666,75.5795898 C248.874507,75.6772466 247.934575,75.7260742 247.006836,75.7260742 C243.320294,75.7260742 240.482188,74.8166595 238.492432,72.9978027 C236.502676,71.178946 235.507812,68.5727709 235.507812,65.1791992 L235.507812,41.4121094 L229.355469,41.4121094 L229.355469,34.8935547 L235.507812,34.8935547 L235.507812,24.9692383 L243.527832,24.9692383 L243.527832,34.8935547 L251.621094,34.8935547 L251.621094,41.4121094 L243.527832,41.4121094 Z M219.504395,28.5581055 C218.112786,28.5581055 216.928716,28.0881395 215.952148,27.1481934 C214.975581,26.2082473 214.487305,25.0791082 214.487305,23.7607422 C214.487305,22.417962 214.975581,21.2888229 215.952148,20.373291 C216.928716,19.4577591 218.112786,19 219.504395,19 C220.896003,19 222.080073,19.4577591 223.056641,20.373291 C224.033208,21.2888229 224.521484,22.417962 224.521484,23.7607422 C224.521484,25.0791082 224.033208,26.2082473 223.056641,27.1481934 C222.080073,28.0881395 220.896003,28.5581055 219.504395,28.5581055 Z M267.111816,41.7779075 C268.170837,39.673519 269.489191,38.0318198 271.066895,36.8527832 C273.337414,35.1559974 276.083968,34.3076172 279.306641,34.3076172 C282.065443,34.3076172 284.488515,34.8935488 286.575928,36.0654297 C288.663341,37.2373105 290.299066,38.9645882 291.483154,41.2473145 C292.667242,43.5300407 293.259277,46.3559402 293.259277,49.7250977 L293.259277,75.3232422 L285.239258,75.3232422 L285.239258,50.7138672 C285.239258,47.7353367 284.476326,45.4221274 282.950439,43.7741699 C281.424553,42.1262125 279.331068,41.3022461 276.669922,41.3022461 C274.863272,41.3022461 273.239753,41.6928672 271.799316,42.4741211 C270.35888,43.255375 269.22974,44.4028245 268.411865,45.9165039 C267.59399,47.4301833 267.185059,49.2978405 267.185059,51.5195312 L267.185059,75.3232422 L259.165039,75.3232422 L259.165039,20.7578125 L267.111816,20.7578125 L267.111816,41.7779075 Z" id="Pay-With"></path>
            <g id="Bitcoin_logo" transform="translate(327.000000, 0.000000)" fill-rule="nonzero">
                <path d="M36.5285388,24.8028884 C39.8825675,24.8028884 42.7803448,25.3988653 45.2154084,26.5690305 C47.6621045,27.7507307 49.6809841,29.3425655 51.3004824,31.3445349 C52.8980082,33.3567577 54.087105,35.7086231 54.854848,38.4039763 C55.617421,41.1070195 56,44.0125666 56,47.123181 C56,51.9012488 55.1172248,56.4152925 53.334872,60.6704387 C51.5525192,64.9319933 49.1342581,68.6283312 46.0581162,71.7812407 C42.9845593,74.9303053 39.3552288,77.4129011 35.1701249,79.2469717 C30.9914834,81.0823239 26.4483578,82 21.5704757,82 C20.9397373,82 19.8307753,81.9820566 18.2642694,81.9500148 C16.6977635,81.9179731 14.8973158,81.7577643 12.8810211,81.4873318 C10.8518014,81.2066459 8.70625707,80.7913847 6.44051054,80.2351397 C4.1760565,79.689148 2.02534217,78.9239907 0,77.9524844 L18.1104623,2.49284922 L34.3312946,0 L27.8468392,26.7779428 C29.2349805,26.1576142 30.6334618,25.6769878 32.0293581,25.3270917 C33.426547,24.9823223 34.925843,24.8028884 36.5285388,24.8028884 Z M22.9224271,69.239688 C25.3652457,69.239688 27.6671821,68.6437112 29.8295289,67.473546 C31.9983382,66.3020991 33.8698733,64.7205177 35.4376717,62.75059 C37.00547,60.7716907 38.2462668,58.5428656 39.1510144,56.0525798 C40.055762,53.5622939 40.5133058,50.9643477 40.5133058,48.2613045 C40.5133058,44.9404961 39.9536548,42.3502399 38.8382302,40.4777193 C37.7228056,38.6128886 35.6586886,37.6747058 32.661389,37.6747058 C31.6790916,37.6747058 30.4137374,37.860548 28.8446465,38.1925007 C27.2703857,38.5449601 25.8615644,39.2767939 24.5987952,40.3777489 L17.6942784,68.8154551 C18.1104623,68.8885103 18.4788238,68.9577205 18.7929005,69.0230857 C19.1005147,69.0935776 19.4404413,69.1435627 19.7790754,69.1781678 C20.137097,69.2178996 20.5468184,69.2384064 21.0418446,69.2384064 C21.5368708,69.2384064 22.1559766,69.239688 22.9224271,69.239688 Z" id="Shape"></path>
                <path d="M71.5818168,80 L56,80 L69.1588163,25.7555491 L84.8472243,25.7555491 L71.5818168,80 Z M79.1640924,19.1464287 C76.9893715,19.1464287 75.0174339,18.5122588 73.2677779,17.2413721 C71.5038232,15.978126 70.6302952,14.0335929 70.6302952,11.4128665 C70.6302952,9.97133968 70.9292705,8.61895321 71.5220217,7.34297274 C72.1238722,6.06953915 72.9103074,4.97311282 73.8956262,4.04095943 C74.8796452,3.11644664 76.0196513,2.37785515 77.3143447,1.82136467 C78.6168374,1.27378822 80.0025233,1 81.4792017,1 C83.6526227,1 85.6141612,1.63416993 87.3703166,2.90505666 C89.1199725,4.18231056 90,6.12684366 90,8.73356223 C90,10.1801828 89.7023245,11.537663 89.1043738,12.8110966 C88.5103227,14.0845302 87.7238874,15.1809565 86.7385686,16.1131099 C85.762349,17.0388961 84.6119437,17.7749408 83.3198501,18.3263375 C82.0160575,18.882828 80.6355712,19.1464287 79.1640924,19.1464287 Z" id="Shape"></path>
                <path d="M98.6450684,12.4953226 L114.726365,10 L110.77745,26.1086224 L128,26.1086224 L124.890053,38.7815256 L107.771253,38.7815256 L103.211363,57.8973646 C102.791238,59.4907789 102.552997,60.9789918 102.486391,62.3620035 C102.41082,63.7514299 102.586299,64.9445662 103.0013,65.94911 C103.41374,66.9562196 104.155362,67.7323996 105.231291,68.2814989 C106.302097,68.8395788 107.835296,69.1205431 109.846259,69.1205431 C111.502421,69.1205431 113.116314,68.9627412 114.676412,68.6497033 C116.227543,68.3417972 117.799168,67.9132945 119.390006,67.3526487 L120.535102,79.201903 C118.460096,79.9639707 116.213453,80.6195542 113.792613,81.1712193 C111.36793,81.7305821 108.497505,82 105.180057,82 C100.410104,82 96.7122387,81.290533 94.0774933,79.8780136 C91.4465905,78.4552307 89.5867703,76.5115732 88.473696,74.05089 C87.3759922,71.5991875 86.8854198,68.7728658 87.0224726,65.5886032 C87.164649,62.396643 87.6449745,59.0417491 88.473696,55.5085262 L98.6450684,12.4953226 Z" id="Shape"></path>
                <path d="M127,58.9566089 C127,54.2958481 127.765238,49.9005817 129.294426,45.7860534 C130.821037,41.6677141 133.020129,38.0663903 135.873668,34.9757304 C138.716901,31.9003142 142.181084,29.4638631 146.258488,27.6752691 C150.316568,25.8968376 154.860329,25 159.867871,25 C163.002254,25 165.801685,25.2921709 168.264876,25.877783 C170.738372,26.4684763 172.976113,27.2319315 175,28.1897439 L169.674253,40.1306412 C168.282912,39.5742462 166.83875,39.0839072 165.345635,38.6392993 C163.851231,38.1857993 162.027027,37.9673063 159.869159,37.9673063 C154.714753,37.9673063 150.639926,39.7190613 147.607316,43.2111386 C144.586301,46.7057565 143.064843,51.4097078 143.064843,57.3102895 C143.064843,60.807448 143.830081,63.6351541 145.36571,65.798489 C146.89361,67.9618239 149.71623,69.037775 153.814246,69.037775 C155.836845,69.037775 157.788588,68.8294444 159.657881,68.4229458 C161.541346,68.0113659 163.204514,67.4930802 164.669288,66.8807916 L165.822298,79.1214816 C163.869266,79.8684228 161.715263,80.5429565 159.352559,81.1336498 C156.984702,81.7040182 154.165946,82 150.897582,82 C146.583134,82 142.930862,81.377549 139.943343,80.1517015 C136.954534,78.9067995 134.484903,77.2541285 132.539601,75.1606606 C130.583993,73.0621114 129.179769,70.6116868 128.311468,67.7992244 C127.443168,64.9893027 127,62.0371064 127,58.9566089 Z" id="Shape"></path>
                <path d="M195.457789,82 C191.812042,82 188.645428,81.4461456 185.959223,80.3498696 C183.280663,79.2535936 181.062122,77.7152504 179.307423,75.7208665 C177.550175,73.736645 176.235107,71.3853045 175.334183,68.6757371 C174.433259,65.96744 174,62.9682423 174,59.6819549 C174,55.5598048 174.663906,51.4389249 176.005734,47.3294778 C177.341191,43.2111386 179.322714,39.5107308 181.945205,36.2219028 C184.547308,32.9279936 187.757248,30.2349402 191.536795,28.1351207 C195.31252,26.0492746 199.655304,25 204.533291,25 C208.112775,25 211.262823,25.5551247 213.985983,26.6514007 C216.6964,27.7451361 218.928958,29.2961824 220.693852,31.2804038 C222.43963,33.2747877 223.766168,35.6159658 224.658171,38.3293441 C225.556547,41.03256 226,44.0393796 226,47.3282075 C226,51.4376546 225.345014,55.5585345 224.045237,59.6806846 C222.744186,63.7825099 220.813635,67.4918099 218.265053,70.7882597 C215.721567,74.0770877 212.540937,76.7688708 208.720612,78.8597981 C204.905384,80.9507254 200.481045,82 195.457789,82 Z M203.092068,37.9685766 C200.827652,37.9685766 198.825741,38.6240556 197.111819,39.9184997 C195.391526,41.2281875 193.94648,42.8745069 192.781778,44.8599987 C191.604333,46.8543826 190.731443,49.0291502 190.141446,51.3931938 C189.556547,53.7623186 189.269831,56.001872 189.269831,58.1296383 C189.269831,61.5632814 189.825422,64.2372802 190.91749,66.1617972 C192.024849,68.0761516 194.014017,69.0390453 196.905384,69.0390453 C199.177445,69.0390453 201.169162,68.3886475 202.893278,67.08023 C204.603377,65.7807047 206.049697,64.1331149 207.22332,62.1438123 C208.393119,60.1595908 209.273654,57.9784716 209.863651,55.6106171 C210.440905,53.2491141 210.735266,50.9968577 210.735266,48.8729023 C210.735266,45.4481514 210.182224,42.767801 209.079962,40.8458247 C207.978974,38.9314702 205.980886,37.9685766 203.092068,37.9685766 Z" id="Shape"></path>
                <path d="M242.587069,80 L227,80 L240.152279,25.7555491 L255.840689,25.7555491 L242.587069,80 Z M250.153884,19.1464287 C247.981543,19.1464287 246.011884,18.5122588 244.265696,17.2413721 C242.511712,15.978126 241.630823,14.0335929 241.630823,11.4128665 C241.630823,9.97133968 241.933547,8.61895321 242.527303,7.34297274 C243.121059,6.06953915 243.912301,4.97311282 244.89713,4.04095943 C245.875463,3.11644664 247.025297,2.37785515 248.316749,1.82136467 C249.610799,1.27378822 250.995797,1 252.466544,1 C254.644083,1 256.611143,1.63416993 258.362528,2.90505666 C260.115213,4.18231056 261,6.12684366 261,8.73356223 C261,10.1801828 260.685582,11.537663 260.097023,12.8110966 C259.508464,14.0845302 258.717223,15.1809565 257.736291,16.1131099 C256.748863,17.0388961 255.613321,17.7749408 254.319271,18.3263375 C253.014827,18.882828 251.632428,19.1464287 250.153884,19.1464287 Z" id="Shape"></path>
                <path d="M266.536004,28.7513253 C267.699468,28.4094779 268.998456,27.9982329 270.411234,27.551004 C271.829125,27.1037751 273.413226,26.6873896 275.182714,26.3121285 C276.933024,25.9253012 278.908356,25.6117269 281.080581,25.3688353 C283.252807,25.1208032 285.728044,25 288.478166,25 C296.561044,25 302.132885,27.3659438 305.209032,32.0836948 C308.282623,36.8014458 308.814492,43.257992 306.819982,51.4417671 L299.770158,81 L284.343394,81 L291.175868,52.0637751 C291.592669,50.2568675 291.919973,48.5103614 292.161616,46.8036948 C292.405815,45.1124498 292.391752,43.6216867 292.106639,42.3314056 C291.834312,41.0565462 291.192489,40.013012 290.196513,39.2046586 C289.185194,38.4091566 287.657348,38.0094779 285.584848,38.0094779 C283.586503,38.0094779 281.553638,38.2253815 279.478581,38.6417671 L269.433157,80.9987149 L254,80.9987149 L266.536004,28.7513253 Z" id="Shape"></path>
            </g>
        </g>
    </g>
</svg>