<?xml version="1.0" encoding="UTF-8"?>
<svg width="461px" height="59px" viewBox="0 0 461 59" version="1.1" xmlns="http://www.w3.org/2000/svg" xmlns:xlink="http://www.w3.org/1999/xlink">
    <!-- Generator: Sketch 51.3 (57544) - http://www.bohemiancoding.com/sketch -->
    <title>Group 4</title>
    <desc>Created with Sketch.</desc>
    <defs></defs>
    <g id="Page-1" stroke="none" stroke-width="1" fill="none" fill-rule="evenodd">
        <g id="Group-4">
            <path d="M8.29078035,32.7382812 L14.7900391,32.7382812 C16.4222087,32.7382812 17.7960556,32.4612658 18.9116211,31.9072266 C20.0271866,31.3531873 20.9106413,30.5857796 21.5620117,29.6049805 C22.2133822,28.6241813 22.6363923,27.5198629 22.8310547,26.2919922 C23.0406912,25.0341734 22.9770525,23.929855 22.6401367,22.9790039 C22.303221,22.0281528 21.6668341,21.2794624 20.730957,20.7329102 C19.79508,20.1863579 18.5185628,19.9130859 16.9013672,19.9130859 L10.4101562,19.9130859 L8.29078035,32.7382812 Z M7.57071217,37.0957031 L5.60351562,49 L0.504882812,49 L6.05273438,15.5332031 L18.0917969,15.5332031 C20.6224085,15.5332031 22.6738203,15.9973912 24.2460938,16.9257812 C25.8183672,17.8541713 26.9151987,19.1306885 27.5366211,20.7553711 C28.1580435,22.3800537 28.2965512,24.2330625 27.9521484,26.3144531 C27.6227197,28.3808697 26.8815162,30.2263916 25.7285156,31.8510742 C24.5755151,33.4757568 23.05193,34.7560175 21.1577148,35.6918945 C19.2634996,36.6277716 17.0436325,37.0957031 14.4980469,37.0957031 L7.57071217,37.0957031 Z M40.1035156,49.5166016 C38.022125,49.5166016 36.2364983,49.0935915 34.746582,48.2475586 C33.2566657,47.4015257 32.1111694,46.2073645 31.3100586,44.6650391 C30.5089478,43.1227136 30.1083984,41.3258566 30.1083984,39.2744141 C30.1083984,37.2828676 30.4228484,35.3662201 31.0517578,33.5244141 C31.6806672,31.682608 32.5865826,30.0317456 33.7695312,28.5717773 C34.9524799,27.1118091 36.3899655,25.9588258 38.0820312,25.112793 C39.774097,24.2667601 41.6757707,23.84375 43.7871094,23.84375 C45.8685,23.84375 47.6578701,24.2630166 49.1552734,25.1015625 C50.6526768,25.9401084 51.7981731,27.1342696 52.5917969,28.684082 C53.3854206,30.2338945 53.7822266,32.0494688 53.7822266,34.1308594 C53.7822266,36.1224058 53.4677766,38.0390533 52.8388672,39.8808594 C52.2099578,41.7226655 51.2965555,43.3697844 50.0986328,44.8222656 C48.9007102,46.2747468 47.4594811,47.4202432 45.7749023,48.2587891 C44.0903236,49.0973349 42.1998803,49.5166016 40.1035156,49.5166016 Z M40.2382812,45.3613281 C41.6757884,45.3613281 42.9335884,45.020674 44.0117188,44.3393555 C45.0898491,43.658037 45.9882777,42.7596084 46.7070312,41.644043 C47.4257848,40.5284775 47.964842,39.3081121 48.3242188,37.9829102 C48.6835955,36.6577082 48.8632812,35.3662172 48.8632812,34.1083984 C48.8632812,32.9104758 48.6761086,31.8548223 48.3017578,30.9414062 C47.927407,30.0279902 47.3509154,29.3092474 46.5722656,28.7851562 C45.7936159,28.2610651 44.8053445,27.9990234 43.6074219,27.9990234 C42.1998628,27.9990234 40.9607801,28.3396776 39.8901367,29.0209961 C38.8194933,29.7023146 37.9210648,30.6007431 37.1948242,31.7163086 C36.4685836,32.8318741 35.9220396,34.0522395 35.5551758,35.3774414 C35.188312,36.7026433 35.0048828,38.0091081 35.0048828,39.296875 C35.0048828,41.0638109 35.4316364,42.5162704 36.2851562,43.6542969 C37.1386761,44.7923234 38.4563713,45.3613281 40.2382812,45.3613281 Z M65.6867448,44.0076736 C66.2560627,42.4934892 66.8175094,41.0579963 67.3710938,39.7011719 C68.1347694,37.8294177 68.8684861,36.0774821 69.5722656,34.4453125 L74.0419922,24.203125 L78.8935547,24.203125 L79.9042969,34.4453125 C80.0690112,36.017586 80.2187493,37.7358305 80.3535156,39.6000977 C80.4515987,40.9569135 80.5377834,42.4148417 80.612071,43.9739061 C81.173902,42.4739803 81.7241073,41.0534865 82.2626953,39.7124023 C83.011397,37.8481352 83.7376267,36.0924562 84.4414062,34.4453125 L88.9111328,24.203125 L94.1445312,24.203125 L82.5097656,49 L77.5683594,49 L76.265625,38.3085938 C76.1458327,37.2903595 76.0335292,36.2047584 75.9287109,35.0517578 C75.8238927,33.8987573 75.7265629,32.704596 75.6367188,31.4692383 C75.5985522,30.9444488 75.560386,30.4230404 75.5222198,29.9050103 C75.3133163,30.416924 75.1044127,30.9308455 74.8955078,31.4467773 C74.4013647,32.667161 73.9109725,33.8575788 73.4243164,35.0180664 C72.9376603,36.178554 72.454755,37.2753855 71.9755859,38.3085938 L67.1464844,49 L62.2050781,49 L58.7910156,24.203125 L63.9345703,24.203125 L64.9902344,34.4453125 C65.1399747,36.017586 65.2859693,37.7358305 65.4282227,39.6000977 C65.5325019,40.9667046 65.6186755,42.4358885 65.6867448,44.0076736 Z M100.364887,34.9938299 C102.284239,34.9673806 103.931806,34.9005899 105.307617,34.793457 C107.134449,34.6512037 108.575678,34.4153662 109.631348,34.0859375 C110.687017,33.7565088 111.435707,33.3147814 111.877441,32.7607422 C112.319175,32.206703 112.540039,31.5253947 112.540039,30.7167969 C112.540039,29.8033808 112.165694,29.0808946 111.416992,28.5493164 C110.668291,28.0177382 109.650072,27.7519531 108.362305,27.7519531 C106.775057,27.7519531 105.431158,28.1262983 104.330566,28.875 C103.229975,29.6237017 102.34652,30.5932558 101.680176,31.7836914 C101.110332,32.8017264 100.671906,33.8717647 100.364887,34.9938299 Z M99.7902366,38.4263898 C99.7699226,38.7434709 99.7597656,39.0560933 99.7597656,39.3642578 C99.7447916,40.4873103 99.9132469,41.5167596 100.265137,42.4526367 C100.617026,43.3885138 101.208492,44.1297173 102.039551,44.6762695 C102.87061,45.2228217 103.997389,45.4960938 105.419922,45.4960938 C106.962247,45.4960938 108.30989,45.16667 109.462891,44.5078125 C110.615891,43.848955 111.469398,42.9580134 112.023438,41.8349609 L116.560547,42.5986328 C115.677079,44.7099715 114.220876,46.394525 112.191895,47.6523438 C110.162913,48.9101625 107.800795,49.5390625 105.105469,49.5390625 C103.009104,49.5390625 101.20476,49.1422566 99.6923828,48.3486328 C98.1800055,47.5550091 97.0195353,46.3945389 96.2109375,44.8671875 C95.4023397,43.3398361 95.0055338,41.4830838 95.0205078,39.296875 C95.0354818,37.1256402 95.3911098,35.0966891 96.0874023,33.2099609 C96.7836949,31.3232328 97.7607359,29.6686269 99.0185547,28.2460938 C100.276373,26.8235606 101.740063,25.7080119 103.409668,24.8994141 C105.079273,24.0908163 106.894847,23.6865234 108.856445,23.6865234 C110.533537,23.6865234 112.004714,23.9672823 113.27002,24.5288086 C114.535325,25.0903348 115.523597,25.8914336 116.234863,26.9321289 C116.94613,27.9728242 117.301758,29.2193938 117.301758,30.671875 C117.301758,32.1393303 116.904952,33.370926 116.111328,34.3666992 C115.317704,35.3624724 114.116056,36.1598277 112.506348,36.7587891 C110.896639,37.3577504 108.867688,37.7882474 106.419434,38.050293 C104.479878,38.2578907 102.27016,38.3832557 99.7902366,38.4263898 Z M120.603516,49 L124.691406,24.203125 L129.430664,24.203125 L128.779297,28.1787109 L129.003906,28.1787109 C129.677738,26.8310479 130.632318,25.7753944 131.867676,25.0117188 C133.103034,24.2480431 134.461907,23.8662109 135.944336,23.8662109 C136.258791,23.8662109 136.606932,23.8774413 136.98877,23.8999023 C137.370607,23.9223634 137.681314,23.9485676 137.920898,23.9785156 L137.157227,28.6279297 C136.932616,28.5830076 136.580732,28.5305993 136.101562,28.4707031 C135.622393,28.410807 135.128258,28.3808594 134.619141,28.3808594 C133.54101,28.3808594 132.530278,28.6129534 131.586914,29.0771484 C130.64355,29.5413435 129.853682,30.1964476 129.217285,31.0424805 C128.580889,31.8885133 128.165366,32.8805282 127.970703,34.0185547 L125.5,49 L120.603516,49 Z M143.939106,34.9938299 C145.858457,34.9673806 147.506024,34.9005899 148.881836,34.793457 C150.708668,34.6512037 152.149897,34.4153662 153.205566,34.0859375 C154.261236,33.7565088 155.009926,33.3147814 155.45166,32.7607422 C155.893394,32.206703 156.114258,31.5253947 156.114258,30.7167969 C156.114258,29.8033808 155.739913,29.0808946 154.991211,28.5493164 C154.242509,28.0177382 153.22429,27.7519531 151.936523,27.7519531 C150.349276,27.7519531 149.005377,28.1262983 147.904785,28.875 C146.804194,29.6237017 145.920739,30.5932558 145.254395,31.7836914 C144.684551,32.8017264 144.246124,33.8717647 143.939106,34.9938299 Z M143.364455,38.4263898 C143.344141,38.7434709 143.333984,39.0560933 143.333984,39.3642578 C143.31901,40.4873103 143.487466,41.5167596 143.839355,42.4526367 C144.191245,43.3885138 144.782711,44.1297173 145.61377,44.6762695 C146.444828,45.2228217 147.571607,45.4960938 148.994141,45.4960938 C150.536466,45.4960938 151.884109,45.16667 153.037109,44.5078125 C154.19011,43.848955 155.043617,42.9580134 155.597656,41.8349609 L160.134766,42.5986328 C159.251298,44.7099715 157.795095,46.394525 155.766113,47.6523438 C153.737132,48.9101625 151.375013,49.5390625 148.679688,49.5390625 C146.583323,49.5390625 144.778979,49.1422566 143.266602,48.3486328 C141.754224,47.5550091 140.593754,46.3945389 139.785156,44.8671875 C138.976558,43.3398361 138.579753,41.4830838 138.594727,39.296875 C138.609701,37.1256402 138.965329,35.0966891 139.661621,33.2099609 C140.357914,31.3232328 141.334955,29.6686269 142.592773,28.2460938 C143.850592,26.8235606 145.314282,25.7080119 146.983887,24.8994141 C148.653491,24.0908163 150.469066,23.6865234 152.430664,23.6865234 C154.107756,23.6865234 155.578932,23.9672823 156.844238,24.5288086 C158.109544,25.0903348 159.097815,25.8914336 159.809082,26.9321289 C160.520349,27.9728242 160.875977,29.2193938 160.875977,30.671875 C160.875977,32.1393303 160.479171,33.370926 159.685547,34.3666992 C158.891923,35.3624724 157.690275,36.1598277 156.080566,36.7587891 C154.470858,37.3577504 152.441907,37.7882474 149.993652,38.050293 C148.054097,38.2578907 145.844378,38.3832557 143.364455,38.4263898 Z M173.65625,49.4941406 C170.960924,49.4941406 168.815926,48.6069425 167.221191,46.8325195 C165.626457,45.0580966 164.829102,42.6211092 164.829102,39.5214844 C164.829102,37.5898341 165.10986,35.6919039 165.671387,33.8276367 C166.232913,31.9633696 167.052729,30.2788161 168.130859,28.7739258 C169.20899,27.2690354 170.519198,26.0711308 172.061523,25.1801758 C173.603849,24.2892208 175.363271,23.84375 177.339844,23.84375 C178.822273,23.84375 180.016434,24.0870744 180.922363,24.5737305 C181.828292,25.0603865 182.528318,25.6481085 183.022461,26.3369141 C183.516604,27.0257196 183.883462,27.6770803 184.123047,28.2910156 L184.347656,28.2910156 L186.436523,15.5332031 L191.355469,15.5332031 L185.807617,49 L181.023438,49 L181.674805,45.1591797 L181.360352,45.1591797 C180.911131,45.8330112 180.349613,46.5030891 179.675781,47.1694336 C179.00195,47.8357781 178.170903,48.389809 177.182617,48.831543 C176.194331,49.2732769 175.018887,49.4941406 173.65625,49.4941406 Z M174.84668,45.3164062 C176.239265,45.3164062 177.463374,44.9757521 178.519043,44.2944336 C179.574712,43.6131151 180.46191,42.7146866 181.180664,41.5991211 C181.899418,40.4835556 182.442218,39.2557033 182.809082,37.9155273 C183.175946,36.5753514 183.359375,35.2464259 183.359375,33.9287109 C183.359375,32.1018789 182.932621,30.6606498 182.079102,29.6049805 C181.225582,28.5493111 179.952808,28.0214844 178.260742,28.0214844 C176.883131,28.0214844 175.666509,28.3546516 174.61084,29.0209961 C173.555171,29.6873406 172.671716,30.5707953 171.960449,31.6713867 C171.249183,32.7719782 170.710126,33.9848567 170.343262,35.3100586 C169.976398,36.6352605 169.792969,37.9566991 169.792969,39.2744141 C169.792969,41.1012461 170.212235,42.5649359 171.050781,43.6655273 C171.889327,44.7661188 173.154614,45.3164062 174.84668,45.3164062 Z M216.713867,49.4941406 C215.27636,49.4941406 214.100916,49.2583031 213.1875,48.7866211 C212.274084,48.314939 211.562828,47.7384474 211.053711,47.0571289 C210.544594,46.3758104 210.155275,45.7057325 209.885742,45.046875 L209.59375,45.046875 L208.919922,49 L204.135742,49 L209.683594,15.5332031 L214.580078,15.5332031 L212.46875,28.1113281 L212.71582,28.1113281 C213.165041,27.4824187 213.719072,26.838545 214.37793,26.1796875 C215.036787,25.52083 215.85286,24.9667991 216.826172,24.5175781 C217.799484,24.0683571 218.982415,23.84375 220.375,23.84375 C222.15691,23.84375 223.710443,24.2405559 225.035645,25.0341797 C226.360846,25.8278034 227.390296,26.9658129 228.124023,28.4482422 C228.857751,29.9306715 229.224609,31.7125547 229.224609,33.7939453 C229.224609,35.6806735 228.947594,37.5523996 228.393555,39.4091797 C227.839515,41.2659598 227.03093,42.9542567 225.967773,44.4741211 C224.904617,45.9939855 223.598152,47.2106074 222.04834,48.1240234 C220.498527,49.0374395 218.720388,49.4941406 216.713867,49.4941406 Z M215.748047,45.3164062 C217.155606,45.3164062 218.387202,44.9720087 219.442871,44.2832031 C220.49854,43.5943976 221.385739,42.6847387 222.104492,41.5541992 C222.823246,40.4236597 223.366046,39.1958074 223.73291,37.8706055 C224.099774,36.5454035 224.283203,35.2389387 224.283203,33.9511719 C224.283203,32.1542879 223.860193,30.7168023 223.01416,29.6386719 C222.168127,28.5605415 220.89161,28.0214844 219.18457,28.0214844 C217.791985,28.0214844 216.567876,28.3546516 215.512207,29.0209961 C214.456538,29.6873406 213.56934,30.5707953 212.850586,31.6713867 C212.131832,32.7719782 211.592775,33.9886001 211.233398,35.3212891 C210.874022,36.653978 210.694336,37.9791601 210.694336,39.296875 C210.694336,41.1386811 211.121089,42.6023709 211.974609,43.6879883 C212.828129,44.7736057 214.085929,45.3164062 215.748047,45.3164062 Z M242.471591,44.484899 C242.737757,43.8798387 243.001458,43.2735452 243.262695,42.6660156 C243.906579,41.1686123 244.617835,39.6787183 245.396484,38.1962891 L252.673828,24.203125 L258.109375,24.203125 L242.521484,52.6386719 C241.817705,53.9114647 241.027836,54.9858355 240.151855,55.8618164 C239.275875,56.7377973 238.30632,57.4003884 237.243164,57.8496094 C236.180008,58.2988304 235.004564,58.5234375 233.716797,58.5234375 C233.042965,58.5234375 232.417809,58.4785161 231.841309,58.3886719 C231.264808,58.2988277 230.804364,58.2089848 230.459961,58.1191406 L232.054688,54.0761719 L233.042969,54.1884766 C233.806644,54.3531909 234.50667,54.3756516 235.143066,54.2558594 C235.779463,54.1360671 236.363441,53.8253606 236.89502,53.3237305 C237.426598,52.8221004 237.909503,52.0846403 238.34375,51.1113281 L239.354492,49.0449219 L234.008789,24.203125 L239.084961,24.203125 L241.69043,38.1962891 C241.959962,39.6936924 242.162109,41.1873298 242.296875,42.6772461 C242.351433,43.2804133 242.409671,43.8829632 242.471591,44.484899 Z" id="Powered-by" fill="#7C8389"></path>
            <g id="Group-2" transform="translate(272.000000, 0.000000)" fill="#136CFA">
                <path d="M13.5520573,0.651988636 L23.9808749,0.651988636 C27.3367795,0.651988636 30.2611668,1.40108995 32.7541245,2.89931506 C35.2470822,4.39754016 37.1886836,6.40319853 38.578987,8.91635031 C39.9692903,11.4295021 40.6644315,14.2567555 40.6644315,17.3981952 C40.6644315,20.4913051 39.9692903,23.3064762 38.578987,25.8437929 C37.1886836,28.3811096 35.235097,30.3867679 32.7181686,31.8608281 C30.2012401,33.3348883 27.2648677,34.0719074 23.9089631,34.0719074 L13.8412996,34.0719074 L13.8412996,42.8294873 C13.8412996,46.8010709 10.621695,50.0206755 6.6501114,50.0206755 L6.65029495,50.0126263 L7.10542736e-15,50.0126263 L7.10542736e-15,43.2014428 C2.18814313,43.1634375 3.64059566,42.8213946 4.35740117,42.1753038 C5.07420668,41.5292131 5.43260406,40.2180486 5.43260406,38.2417711 L5.43260406,35.1608755 C5.4927298,31.1251514 5.73795151,28.6647312 6.16826919,27.7796149 C6.81374572,26.4519404 8.62950124,25.9933765 9.94993244,25.2712751 C8.66722784,24.587179 6.81374572,23.80178 6.19656401,22.7344315 C5.57938229,21.667083 5.43260406,20.3306148 5.43260406,18.544364 L5.43260406,12.5858178 C5.43260406,10.4955242 5.07420668,9.11785136 4.35740117,8.45275795 C3.64059566,7.78766454 2.18814313,7.45512282 7.10542736e-15,7.45512282 L7.10542736e-15,0.643939394 L13.5520573,0.643939394 L13.5520573,0.651988636 Z M13.8412996,27.2386364 L22.6864611,27.2386364 C25.8505997,27.2386364 28.3914608,26.3693269 30.3091205,24.6306818 C32.2267803,22.8920368 33.1855958,20.4772882 33.1855958,17.3863636 C33.1855958,14.1022563 32.2387655,11.627139 30.3450765,9.9609375 C28.4513875,8.29473599 25.9225116,7.46164773 22.7583729,7.46164773 L13.8412996,7.46164773 L13.8412996,27.2386364 Z M61.3803803,50.7102273 C57.8327097,50.7102273 54.7045742,49.9495815 51.9958797,48.428267 C49.2871853,46.9069526 47.1897764,44.7699001 45.7035901,42.0170455 C44.2174037,39.2641908 43.4743217,36.0525752 43.4743217,32.3821023 C43.4743217,28.6633337 44.2174037,25.4275706 45.7035901,22.6747159 C47.1897764,19.9218612 49.2871853,17.772735 51.9958797,16.2272727 C54.7045742,14.6818105 57.8327097,13.9090909 61.3803803,13.9090909 C64.9759924,13.9090909 68.1161132,14.6818105 70.8008368,16.2272727 C73.4855605,17.772735 75.5829694,19.9218612 77.0931265,22.6747159 C78.6032836,25.4275706 79.3583508,28.6633337 79.3583508,32.3821023 C79.3583508,36.0525752 78.6032836,39.2641908 77.0931265,42.0170455 C75.5829694,44.7699001 73.4855605,46.9069526 70.8008368,48.428267 C68.1161132,49.9495815 64.9759924,50.7102273 61.3803803,50.7102273 Z M61.3803803,43.7556818 C64.5924604,43.7556818 67.1692771,42.7052662 69.1109076,40.6044034 C71.0525381,38.5035406 72.0233388,35.762801 72.0233388,32.3821023 C72.0233388,28.9531079 71.0525381,26.176147 69.1109076,24.0511364 C67.1692771,21.9261257 64.5924604,20.8636364 61.3803803,20.8636364 C58.2162417,20.8636364 55.6633954,21.914052 53.7217649,24.0149148 C51.7801344,26.1157775 50.8093337,28.8806647 50.8093337,32.3096591 C50.8093337,35.7386535 51.7801344,38.5035406 53.7217649,40.6044034 C55.6633954,42.7052662 58.2162417,43.7556818 61.3803803,43.7556818 Z M96.3641791,50.7102273 C93.9191629,50.7102273 91.510139,50.1306876 89.137035,48.9715909 C86.763931,47.8124942 84.8103445,45.8324004 83.2762166,43.03125 L88.7415197,39.4090909 C90.0838815,41.1960317 91.354312,42.4879222 92.5528494,43.2848011 C93.7513868,44.0816801 95.3094619,44.4801136 97.2271217,44.4801136 C98.7612495,44.4801136 99.9477837,44.0816801 100.78676,43.2848011 C101.625736,42.4879222 102.045218,41.509949 102.045218,40.3508523 C102.045218,39.5781211 101.84147,38.9019915 101.433967,38.3224432 C101.026464,37.7428948 100.319338,37.1995764 99.3125663,36.6924716 C98.3057949,36.1853668 96.8675717,35.6903433 94.9978534,35.2073864 C91.5460658,34.2897681 88.8853528,33.0823938 87.0156345,31.5852273 C85.1459162,30.0880607 84.2110711,27.7216071 84.2110711,24.4857955 C84.2110711,22.5539676 84.6904789,20.7912012 85.6493087,19.1974432 C86.6081386,17.6036852 87.9984211,16.3238685 89.8201979,15.3579545 C91.6419747,14.3920406 93.7993096,13.9090909 96.2922673,13.9090909 C99.2646399,13.9090909 101.805501,14.5248518 103.914927,15.756392 C106.024352,16.9879323 107.678309,18.4488552 108.876847,20.1392045 L103.339632,24.2684659 C102.668451,23.3991434 101.685665,22.5419076 100.391245,21.696733 C99.0968242,20.8515583 97.4668378,20.4289773 95.5012366,20.4289773 C94.3026992,20.4289773 93.2000614,20.7670421 92.19329,21.4431818 C91.1865186,22.1193216 90.6831405,23.0610735 90.6831405,24.2684659 C90.6831405,25.4758583 91.150563,26.4538315 92.0854222,27.2024148 C93.0202813,27.9509981 94.734164,28.6150539 97.2271217,29.1946023 C101.445973,30.2088119 104.442272,31.5248499 106.216107,33.1427557 C107.989942,34.7606615 108.876847,36.897714 108.876847,39.5539773 C108.876847,41.8721707 108.289572,43.8643383 107.115005,45.5305398 C105.940439,47.1967413 104.406334,48.476558 102.512645,49.3700284 C100.618956,50.2634988 98.5694879,50.7102273 96.3641791,50.7102273 Z M144.983761,18.6575114 C145.30855,18.2797353 145.677711,17.8922416 146.091245,17.4950284 C147.121988,16.5049666 148.332492,15.6598046 149.722795,14.959517 C151.113099,14.2592295 152.527352,13.9090909 153.965597,13.9090909 C154.684719,13.9090909 155.367875,13.9573859 156.015085,14.0539773 C156.662295,14.1505687 157.153688,14.3196011 157.489279,14.5610795 L157.489279,21.0809659 L155.26001,21.0809659 C151.999989,21.0809659 149.62692,21.5759894 148.140734,22.5660511 C147.287206,23.1346514 146.568089,23.8824493 145.983378,24.8094535 L145.983378,49.9857955 L138.792189,49.9857955 L138.792189,14.6335227 L144.257492,14.6335227 L144.983761,18.6575114 Z M118.872598,21.2982955 L113.479207,21.2982955 L113.479207,14.6335227 L118.872598,14.6335227 L118.872598,11.15625 C118.872598,8.59657811 119.280095,6.49574685 120.0951,4.85369318 C120.910106,3.21163952 122.060684,1.99219148 123.54687,1.1953125 C125.033057,0.398433516 126.806865,0 128.86835,0 C129.82718,0 130.690114,0.0724424574 131.457177,0.217329545 C132.224241,0.362216634 132.919383,0.531249034 133.542622,0.724431818 L133.542622,7.46164773 C133.015266,7.36505634 132.499902,7.28054013 131.996517,7.20809659 C131.493131,7.13565305 130.905856,7.09943182 130.234675,7.09943182 C129.179963,7.09943182 128.221147,7.44957036 127.3582,8.14985795 C126.495253,8.85014555 126.063786,10.0454461 126.063786,11.7357955 L126.063786,14.6335227 L132.823503,14.6335227 L132.823503,21.2982955 L126.063786,21.2982955 L126.063786,49.9857955 L118.872598,49.9857955 L118.872598,21.2982955 Z M181.808812,29.2792042 L181.808812,26.296875 C181.808812,24.7997084 181.305434,23.4233017 180.298662,22.1676136 C179.291891,20.9119255 177.518082,20.2840909 174.977183,20.2840909 C173.634821,20.2840909 172.160642,20.4410496 170.554602,20.7549716 C168.948562,21.0688936 167.28262,21.612212 165.556727,22.3849432 L163.39937,16.8068182 C165.364971,15.8409043 167.402454,15.1164797 169.51188,14.6335227 C171.621306,14.1505658 173.682759,13.9090909 175.696302,13.9090909 C178.716616,13.9090909 181.209536,14.4644831 183.175138,15.5752841 C185.140739,16.6860851 186.602932,18.1711555 187.561762,20.0305398 C188.520592,21.8899241 189,23.9786816 189,26.296875 L189,49.9857955 L183.822345,49.9857955 L183.084419,47.339371 C182.531448,47.915143 181.914481,48.4229941 181.233517,48.8629261 C179.028208,50.2876492 176.439406,51 173.467034,51 C170.734368,51 168.38527,50.5170503 166.419669,49.5511364 C164.454068,48.5852224 162.955919,47.196742 161.925176,45.3856534 C160.894434,43.5745648 160.379071,41.4133648 160.379071,38.9019886 C160.379071,36.5837952 160.90642,34.5191852 161.961132,32.7080966 C163.015845,30.897008 164.52598,29.4602326 166.491581,28.3977273 C168.457182,27.335222 170.78231,26.8039773 173.467034,26.8039773 C176.822938,26.8039773 179.519607,27.5646231 181.55712,29.0859375 C181.64208,29.1493731 181.725977,29.2137953 181.808812,29.2792042 Z M174.761447,44.5525568 C176.870873,44.5525568 178.572771,44.0575334 179.867191,43.0674716 C181.161611,42.0774098 181.808812,40.6889294 181.808812,38.9019886 C181.808812,37.0667522 181.161611,35.666198 179.867191,34.7002841 C178.572771,33.7343702 176.870873,33.2514205 174.761447,33.2514205 C172.652022,33.2514205 170.950124,33.7343702 169.655704,34.7002841 C168.361283,35.666198 167.714083,37.0667522 167.714083,38.9019886 C167.714083,40.6889294 168.361283,42.0774098 169.655704,43.0674716 C170.950124,44.0575334 172.652022,44.5525568 174.761447,44.5525568 Z" id="Posfra"></path>
            </g>
        </g>
    </g>
</svg>